<svg width="85" height="85" viewBox="0 0 85 85" fill="none" xmlns="http://www.w3.org/2000/svg">
<path d="M17.5439 5.8125L17.4145 5.50803C16.1274 2.47886 13.3904 0.5 10.3438 0.5H3.57196C1.91862 0.5 0.5 1.99973 0.5 3.98438C0.5 5.96902 1.91862 7.46875 3.57196 7.46875H10.3438C11.2011 7.46875 11.8736 8.12702 12.0126 8.96499C12.0127 8.96545 12.0128 8.96592 12.0129 8.96638L19.6921 53.954L19.6923 53.9546C20.6106 59.3808 24.8534 63.25 29.7217 63.25H72.6298C74.2831 63.25 75.7017 61.7503 75.7017 59.7656C75.7017 57.781 74.2831 56.2812 72.6298 56.2812H29.7217C27.7282 56.2812 26.0788 54.7047 25.7167 52.6299L25.7163 52.6277L24.9126 47.8962L24.8134 47.3125H25.4055H68.3434C72.9152 47.3125 76.9818 43.8701 78.2012 38.8466L17.5439 5.8125ZM17.5439 5.8125H17.8747H79.0444C82.5675 5.8125 85.2705 9.59083 84.3035 13.5614L84.3033 13.5624L78.2013 38.846L17.5439 5.8125ZM19.5504 77.0312C19.5504 76.0433 19.7249 75.0661 20.063 74.1558C20.401 73.2455 20.8952 72.4217 21.5151 71.7302C22.135 71.0389 22.8678 70.4937 23.6702 70.123C24.4724 69.7523 25.3299 69.5625 26.1944 69.5625C27.0588 69.5625 27.9163 69.7523 28.7185 70.123C29.5209 70.4937 30.2537 71.0389 30.8736 71.7302C31.4935 72.4217 31.9877 73.2455 32.3257 74.1558C32.6638 75.0661 32.8383 76.0433 32.8383 77.0312C32.8383 78.0192 32.6638 78.9964 32.3257 79.9067C31.9877 80.817 31.4935 81.6408 30.8736 82.3322C30.2537 83.0236 29.5209 83.5688 28.7185 83.9395C27.9163 84.3102 27.0588 84.5 26.1944 84.5C25.3299 84.5 24.4724 84.3102 23.6702 83.9395C22.8678 83.5688 22.135 83.0236 21.5151 82.3322C20.8952 81.6408 20.401 80.817 20.063 79.9067C19.7249 78.9964 19.5504 78.0192 19.5504 77.0312ZM69.0578 69.5625C70.8012 69.5625 72.4858 70.3345 73.737 71.7302C74.9899 73.1278 75.7017 75.0338 75.7017 77.0312C75.7017 79.0286 74.9899 80.9347 73.737 82.3322C72.4858 83.728 70.8012 84.5 69.0578 84.5C67.3145 84.5 65.6299 83.728 64.3786 82.3322C63.1258 80.9347 62.4139 79.0286 62.4139 77.0312C62.4139 75.0338 63.1258 73.1278 64.3786 71.7302C65.6299 70.3345 67.3145 69.5625 69.0578 69.5625ZM37.0055 26.5625C37.0055 28.612 38.5189 30.3828 40.4822 30.3828H46.5308V37.1875C46.5308 39.237 48.0441 41.0078 50.0074 41.0078C51.9707 41.0078 53.484 39.237 53.484 37.1875V30.3828H59.5326C61.4959 30.3828 63.0092 28.612 63.0092 26.5625C63.0092 24.513 61.4959 22.7422 59.5326 22.7422H53.484V15.9375C53.484 13.888 51.9707 12.1172 50.0074 12.1172C48.0441 12.1172 46.5308 13.888 46.5308 15.9375V22.7422H40.4822C38.5189 22.7422 37.0055 24.513 37.0055 26.5625Z" fill="#FFCF00" stroke="black"/>
</svg>
