<svg width="54" height="44" viewBox="0 0 54 44" fill="none" xmlns="http://www.w3.org/2000/svg">
<path d="M0.755615 2.01997C0.755615 0.900571 1.74322 0 2.9708 0H7.17042C9.201 0 11.0008 1.07732 11.8408 2.6933H49.7758C52.2032 2.6933 53.9754 4.79743 53.3385 6.93524L49.5543 19.7536C48.7697 22.3964 46.1392 24.2397 43.1395 24.2397H16.5111L17.0095 26.6384C17.2126 27.5895 18.1263 28.2796 19.1878 28.2796H45.7977C47.0253 28.2796 48.0129 29.1802 48.0129 30.2996C48.0129 31.419 47.0253 32.3196 45.7977 32.3196H19.1878C15.9942 32.3196 13.2529 30.2491 12.6622 27.3959L7.89958 4.58702C7.83497 4.26719 7.53038 4.03994 7.17042 4.03994H2.9708C1.74322 4.03994 0.755615 3.13937 0.755615 2.01997ZM12.5699 39.0528C12.5699 38.5223 12.6845 37.9969 12.9072 37.5068C13.1298 37.0166 13.4562 36.5713 13.8676 36.1961C14.2789 35.821 14.7673 35.5234 15.3049 35.3204C15.8424 35.1173 16.4185 35.0129 17.0003 35.0129C17.5821 35.0129 18.1582 35.1173 18.6957 35.3204C19.2332 35.5234 19.7216 35.821 20.133 36.1961C20.5444 36.5713 20.8708 37.0166 21.0934 37.5068C21.3161 37.9969 21.4307 38.5223 21.4307 39.0528C21.4307 39.5833 21.3161 40.1087 21.0934 40.5988C20.8708 41.089 20.5444 41.5343 20.133 41.9095C19.7216 42.2846 19.2332 42.5822 18.6957 42.7852C18.1582 42.9882 17.5821 43.0927 17.0003 43.0927C16.4185 43.0927 15.8424 42.9882 15.3049 42.7852C14.7673 42.5822 14.2789 42.2846 13.8676 41.9095C13.4562 41.5343 13.1298 41.089 12.9072 40.5988C12.6845 40.1087 12.5699 39.5833 12.5699 39.0528ZM43.5825 35.0129C44.7575 35.0129 45.8844 35.4385 46.7152 36.1961C47.5461 36.9538 48.0129 37.9813 48.0129 39.0528C48.0129 40.1243 47.5461 41.1518 46.7152 41.9095C45.8844 42.6671 44.7575 43.0927 43.5825 43.0927C42.4075 43.0927 41.2806 42.6671 40.4498 41.9095C39.6189 41.1518 39.1521 40.1243 39.1521 39.0528C39.1521 37.9813 39.6189 36.9538 40.4498 36.1961C41.2806 35.4385 42.4075 35.0129 43.5825 35.0129ZM24.015 13.4665C24.015 14.3923 24.8457 15.1498 25.861 15.1498H29.9222V18.8531C29.9222 19.7789 30.7529 20.5364 31.7682 20.5364C32.7835 20.5364 33.6142 19.7789 33.6142 18.8531V15.1498H37.6753C38.6906 15.1498 39.5213 14.3923 39.5213 13.4665C39.5213 12.5407 38.6906 11.7832 37.6753 11.7832H33.6142V8.07989C33.6142 7.15407 32.7835 6.39658 31.7682 6.39658C30.7529 6.39658 29.9222 7.15407 29.9222 8.07989V11.7832H25.861C24.8457 11.7832 24.015 12.5407 24.015 13.4665Z" fill="white"/>
</svg>
