<svg width="65" height="65" viewBox="0 0 65 65" fill="none" xmlns="http://www.w3.org/2000/svg">
<path d="M6.04297 38.1367L28.9834 59.5537C29.9355 60.4424 31.1924 60.9375 32.5 60.9375C33.8076 60.9375 35.0645 60.4424 36.0166 59.5537L58.957 38.1367C62.8164 34.544 65 29.5039 65 24.2354V23.499C65 14.625 58.5889 7.0586 49.8418 5.59864C44.0527 4.6338 38.1621 6.5254 34.0234 10.6641L32.5 12.1875L30.9766 10.6641C26.8379 6.5254 20.9473 4.6338 15.1582 5.59864C6.41113 7.0586 0 14.625 0 23.499V24.2354C0 29.5039 2.18359 34.544 6.04297 38.1367Z" fill="#FF3131"/>
</svg>
