<svg width="40" height="38" viewBox="0 0 40 38" fill="none" xmlns="http://www.w3.org/2000/svg">
<g clip-path="url(#clip0_97_67)">
<path d="M31.8346 15.502C31.8346 18.8501 30.6961 21.9429 28.7783 24.4522L38.4516 33.6941C39.4067 34.6059 39.4067 36.0867 38.4516 36.9985C37.4965 37.9103 35.9454 37.9103 34.9903 36.9985L25.317 27.7565C22.6886 29.5947 19.4489 30.6743 15.9417 30.6743C7.16243 30.6743 0.0488281 23.8832 0.0488281 15.502C0.0488281 7.12084 7.16243 0.329803 15.9417 0.329803C24.721 0.329803 31.8346 7.12084 31.8346 15.502ZM15.9417 26.0059C17.3866 26.0059 18.8174 25.7342 20.1523 25.2063C21.4872 24.6785 22.7002 23.9048 23.7219 22.9294C24.7436 21.954 25.554 20.7961 26.107 19.5217C26.6599 18.2473 26.9445 16.8814 26.9445 15.502C26.9445 14.1227 26.6599 12.7568 26.107 11.4824C25.554 10.208 24.7436 9.05007 23.7219 8.07469C22.7002 7.09932 21.4872 6.32561 20.1523 5.79774C18.8174 5.26987 17.3866 4.99818 15.9417 4.99818C14.4968 4.99818 13.0661 5.26987 11.7311 5.79774C10.3962 6.32561 9.18329 7.09932 8.16159 8.07469C7.13989 9.05007 6.32943 10.208 5.77649 11.4824C5.22355 12.7568 4.93895 14.1227 4.93895 15.502C4.93895 16.8814 5.22355 18.2473 5.77649 19.5217C6.32943 20.7961 7.13989 21.954 8.16159 22.9294C9.18329 23.9048 10.3962 24.6785 11.7311 25.2063C13.0661 25.7342 14.4968 26.0059 15.9417 26.0059Z" fill="black"/>
</g>
<defs>
<clipPath id="clip0_97_67">
<rect width="39.121" height="37.347" fill="white" transform="translate(0.0488281 0.329803)"/>
</clipPath>
</defs>
</svg>
