<svg width="36" height="26" viewBox="0 0 36 26" fill="none" xmlns="http://www.w3.org/2000/svg">
<path d="M0 20.5263H36V26H0V20.5263Z" fill="white"/>
<path d="M0 20.5263H36V26H0V20.5263Z" fill="white"/>
<path d="M0 20.5263H36V26H0V20.5263Z" fill="white"/>
<path d="M0 10.2632C14.0589 10.2632 21.9411 10.2632 36 10.2632V15.7368H0V10.2632Z" fill="white"/>
<path d="M0 10.2632C14.0589 10.2632 21.9411 10.2632 36 10.2632V15.7368H0V10.2632Z" fill="white"/>
<path d="M0 10.2632C14.0589 10.2632 21.9411 10.2632 36 10.2632V15.7368H0V10.2632Z" fill="white"/>
<path d="M0 0H36V5.47368H0V0Z" fill="white"/>
<path d="M0 0H36V5.47368H0V0Z" fill="white"/>
<path d="M0 0H36V5.47368H0V0Z" fill="white"/>
</svg>
