<svg width="43" height="48" viewBox="0 0 43 48" fill="none" xmlns="http://www.w3.org/2000/svg">
<path d="M21.1508 23.9404C24.3433 23.9404 27.405 22.6793 29.6624 20.4344C31.9199 18.1896 33.1881 15.1449 33.1881 11.9702C33.1881 8.79551 31.9199 5.75084 29.6624 3.50599C27.405 1.26114 24.3433 0 21.1508 0C17.9584 0 14.8966 1.26114 12.6392 3.50599C10.3818 5.75084 9.11361 8.79551 9.11361 11.9702C9.11361 15.1449 10.3818 18.1896 12.6392 20.4344C14.8966 22.6793 17.9584 23.9404 21.1508 23.9404ZM16.8532 28.4292C7.59015 28.4292 0.0856934 35.8919 0.0856934 45.1034C0.0856934 46.637 1.33644 47.8808 2.87871 47.8808H39.423C40.9652 47.8808 42.216 46.637 42.216 45.1034C42.216 35.8919 34.7115 28.4292 25.4485 28.4292H16.8532Z" fill="white"/>
</svg>
