<svg width="1440" height="463" viewBox="0 0 1440 463" fill="none" xmlns="http://www.w3.org/2000/svg">
<path d="M0 4.03987C0 1.83073 1.79086 0.0398712 4 0.0398712H1436C1438.21 0.0398712 1440 1.83073 1440 4.03987V458.569C1440 460.778 1438.21 462.569 1436 462.569H3.99997C1.79083 462.569 0 460.778 0 458.569V4.03987Z" fill="#1B94C8"/>
<path d="M1367.92 234.873C1369.33 233.425 1369.33 231.073 1367.92 229.624L1349.89 211.086C1348.48 209.638 1346.19 209.638 1344.78 211.086C1343.37 212.535 1343.37 214.887 1344.78 216.335L1356.67 228.547H1322.08C1320.09 228.547 1318.48 230.204 1318.48 232.255C1318.48 234.305 1320.09 235.962 1322.08 235.962H1356.66L1344.79 248.174C1343.38 249.623 1343.38 251.975 1344.79 253.423C1346.2 254.871 1348.49 254.871 1349.9 253.423L1367.93 234.885L1367.92 234.873Z" fill="black"/>
<path d="M72.7073 229.149C71.2981 230.597 71.2981 232.95 72.7073 234.398L90.745 252.936C92.1542 254.384 94.4428 254.384 95.852 252.936C97.2612 251.488 97.2612 249.136 95.852 247.687L83.9583 235.475H118.546C120.541 235.475 122.153 233.819 122.153 231.768C122.153 229.717 120.541 228.06 118.546 228.06H83.9696L95.8407 215.848C97.2499 214.4 97.2499 212.048 95.8407 210.599C94.4315 209.151 92.1429 209.151 90.7337 210.599L72.696 229.138L72.7073 229.149Z" fill="black"/>
<rect x="703.556" y="432.907" width="37.5856" height="18.5382" fill="#0030FF"/>
<rect x="806.917" y="432.907" width="37.5856" height="18.5382" fill="#DD552C"/>
<rect x="755.236" y="432.907" width="37.5856" height="18.5382" fill="#9E1780"/>
</svg>
