<svg width="35" height="35" viewBox="0 0 85 85" fill="none" xmlns="http://www.w3.org/2000/svg">
<g clip-path="url(#clip0_93_188)">
<path d="M76.2626 25.1872C76.3166 25.9423 76.3166 26.6975 76.3166 27.4525C76.3166 50.4822 58.7881 77.0178 26.7513 77.0178C16.8813 77.0178 7.71259 74.1592 0 69.1975C1.40233 69.3592 2.75055 69.4131 4.20684 69.4131C12.3507 69.4131 19.8477 66.6626 25.8344 61.9703C18.1757 61.8084 11.7576 56.7926 9.54623 49.889C10.625 50.0507 11.7036 50.1586 12.8363 50.1586C14.4004 50.1586 15.9646 49.9428 17.4207 49.5655C9.43849 47.9473 3.45163 40.936 3.45163 32.4683V32.2527C5.7707 33.5471 8.46763 34.3561 11.3259 34.4638C6.63365 31.3356 3.55954 25.9962 3.55954 19.9556C3.55954 16.7196 4.42232 13.7532 5.93257 11.1644C14.5081 21.7354 27.3984 28.6389 41.8525 29.3941C41.5829 28.0996 41.4211 26.7514 41.4211 25.403C41.4211 15.8027 49.1876 7.98236 58.8417 7.98236C63.8576 7.98236 68.388 10.0858 71.5702 13.4836C75.5072 12.7286 79.2826 11.2723 82.6266 9.27678C81.3321 13.3219 78.5815 16.7198 74.968 18.877C78.4738 18.4996 81.8716 17.5286 84.9997 16.1804C82.627 19.632 79.6604 22.7061 76.2626 25.1872Z" fill="black"/>
</g>
<defs>
<clipPath id="clip0_93_188">
<rect width="85" height="85" fill="white"/>
</clipPath>
</defs>
</svg>
